<svg width="1356" height="1024" viewBox="0 0 1356 1024" fill="none" xmlns="http://www.w3.org/2000/svg">
<path d="M655 522.5C655 833.16 403.16 1085 92.5 1085C-218.16 1085 -470 833.16 -470 522.5C-470 211.84 -218.16 -40 92.5 -40C403.16 -40 655 211.84 655 522.5Z" fill="#6292F7" fill-opacity="0.05"/>
<path d="M1356 175C1356 238.513 1304.51 290 1241 290C1177.49 290 1126 238.513 1126 175C1126 111.487 1177.49 60 1241 60C1304.51 60 1356 111.487 1356 175Z" fill="#6292F7" fill-opacity="0.05"/>
<path d="M260 786.5C260 823.227 230.227 853 193.5 853C156.773 853 127 823.227 127 786.5C127 749.773 156.773 720 193.5 720C230.227 720 260 749.773 260 786.5Z" fill="#6292F7" fill-opacity="0.05"/>
<path d="M1053 707.5C1053 761.348 1009.35 805 955.5 805C901.652 805 858 761.348 858 707.5C858 653.652 901.652 610 955.5 610C1009.35 610 1053 653.652 1053 707.5Z" fill="#6292F7" fill-opacity="0.05"/>
</svg>
