<svg width="537" height="517" viewBox="0 0 537 517" fill="none" xmlns="http://www.w3.org/2000/svg">
<path d="M537 278.5C537 741.038 162.038 1116 -300.5 1116C-763.038 1116 -1138 741.038 -1138 278.5C-1138 -184.038 -763.038 -559 -300.5 -559C162.038 -559 537 -184.038 537 278.5Z" fill="#FFFAFA"/>
<path d="M164 523.5C164 601.648 100.648 665 22.5 665C-55.6483 665 -119 601.648 -119 523.5C-119 445.352 -55.6483 382 22.5 382C100.648 382 164 445.352 164 523.5Z" fill="#FF0000" fill-opacity="0.02"/>
<path d="M144 524C144 580.333 98.333 626 42 626C-14.333 626 -60 580.333 -60 524C-60 467.667 -14.333 422 42 422C98.333 422 144 467.667 144 524Z" fill="#FF0000" fill-opacity="0.02"/>
</svg>
