<svg width="31" height="31" viewBox="0 0 31 31" fill="none" xmlns="http://www.w3.org/2000/svg">
<path d="M15.5007 2.5835C8.36678 2.5835 2.58398 8.36629 2.58398 15.5002C2.58398 21.2397 6.33046 26.0989 11.5094 27.7813H19.4919C24.6708 26.0989 28.4173 21.2397 28.4173 15.5002C28.4173 8.36629 22.6345 2.5835 15.5007 2.5835Z" fill="black" fill-opacity="0.54"/>
<path opacity="0.05" d="M19.3819 27.1225L19.3754 23.378C19.3754 22.7715 19.2333 22.1793 18.9608 21.6426C22.6039 20.9109 24.3767 18.757 24.3767 15.07C24.3767 13.6136 23.9473 12.3277 23.1006 11.2466C23.1652 11.0419 23.213 10.8301 23.2427 10.6131C23.3641 9.72891 23.2278 9.15089 23.118 8.68589L23.1006 8.61097C22.9805 8.09689 22.8364 7.73006 22.8306 7.71456L22.7589 7.53243L22.6872 7.35031L22.4922 7.32964L22.2965 7.30897C22.2965 7.30897 22.168 7.29541 21.973 7.29541C21.7023 7.29541 21.3013 7.32254 20.9222 7.45106L20.7956 7.49368C20.3177 7.65449 19.8662 7.80691 19.2346 8.18408C19.0499 8.29451 18.8478 8.42045 18.6314 8.56124C17.6536 8.31906 16.6016 8.1957 15.5004 8.1957C14.3883 8.1957 13.3272 8.3197 12.3429 8.56447C12.124 8.42239 11.9206 8.29516 11.7346 8.18408C11.1029 7.80691 10.6515 7.65514 10.1736 7.49368L10.047 7.45106C9.66918 7.32254 9.26747 7.29541 8.99687 7.29541C8.80183 7.29541 8.67331 7.30897 8.67331 7.30897L8.47826 7.32964L8.28451 7.34966L8.21218 7.53114L8.1392 7.71391C8.13274 7.7307 7.98872 8.09754 7.8686 8.61226L7.85116 8.68654C7.74137 9.15089 7.6051 9.72956 7.72651 10.6131C7.75751 10.8365 7.80724 11.0555 7.87506 11.266C7.04516 12.342 6.62472 13.6207 6.62472 15.07C6.62472 18.748 8.39947 20.9005 12.0478 21.6381C11.9225 21.8887 11.825 22.1535 11.7559 22.4286C11.6286 22.4719 11.5117 22.5009 11.4084 22.5171C11.2547 22.5403 11.0939 22.5519 10.9311 22.5519C10.4881 22.5519 10.14 22.4654 10.0044 22.3847C9.80222 22.2645 9.4412 21.9151 9.09116 21.4043C8.79214 20.9684 8.32585 20.3981 7.80466 20.1598C7.35387 19.9537 6.8766 19.8356 6.49426 19.8356C6.40514 19.8356 6.32312 19.842 6.25143 19.8536C5.91753 19.9066 5.63853 20.09 5.48676 20.3574C5.35566 20.588 5.33499 20.8566 5.42993 21.0943C5.57137 21.4482 5.97953 21.7304 6.29728 21.9048C6.45358 21.9907 6.79135 22.3046 6.98833 22.621C7.13622 22.8587 7.20468 23.0279 7.29962 23.2617C7.35581 23.4006 7.41781 23.5517 7.50176 23.7345C7.80531 24.3945 8.75274 24.977 8.85995 25.041C9.38049 25.3529 10.2556 25.453 10.8988 25.4821L10.9783 25.484H10.9789C11.1339 25.484 11.3471 25.4692 11.6273 25.4382V27.1257C11.6286 27.4674 11.2805 27.5449 10.8201 27.5378L11.1733 27.6566C12.5263 28.1403 13.9795 28.4167 15.5004 28.4167C17.0213 28.4167 18.4745 28.1403 19.8294 27.6572L20.2835 27.488C19.8243 27.4725 19.3857 27.3976 19.3819 27.1225Z" fill="black" fill-opacity="0.54"/>
<path opacity="0.07" d="M19.8791 27.6396C19.6169 27.67 19.0518 27.5693 19.0518 27.1262V23.3778C19.0518 22.6713 18.8399 21.9886 18.4473 21.4067C22.2674 20.7886 24.0524 18.7633 24.0524 15.0698C24.0524 13.6251 23.6094 12.3612 22.7356 11.3097C22.8241 11.074 22.8861 10.8254 22.9216 10.569C23.0346 9.74489 22.9113 9.22177 22.8028 8.76L22.7853 8.68508C22.6704 8.1936 22.5347 7.84744 22.5289 7.83323L22.4572 7.6511L22.2616 7.63043C22.2616 7.63043 22.1466 7.61816 21.9716 7.61816C21.7255 7.61816 21.3619 7.64206 21.0248 7.75702L20.8982 7.79964C20.4371 7.95529 20.0011 8.10189 19.3992 8.46098C19.1848 8.58885 18.9458 8.73933 18.6882 8.90919C17.6981 8.65021 16.6267 8.51846 15.4997 8.51846C14.3617 8.51846 13.2812 8.65085 12.2841 8.91241C12.0238 8.74127 11.7836 8.59014 11.5678 8.46098C10.9659 8.10189 10.53 7.95464 10.0689 7.79964L9.94228 7.75702C9.6058 7.64271 9.24155 7.61816 8.99549 7.61816C8.82047 7.61816 8.70551 7.63043 8.70551 7.63043L8.51047 7.6511L8.43749 7.83387C8.43168 7.84808 8.29605 8.19425 8.18109 8.68573L8.16366 8.76064C8.05451 9.22241 7.93116 9.74489 8.04482 10.569C8.08099 10.8318 8.14557 11.0863 8.23728 11.3272C7.38026 12.3734 6.94626 13.6309 6.94626 15.0698C6.94626 18.753 8.73263 20.7777 12.556 21.4028C12.3009 21.7839 12.1226 22.2134 12.0309 22.6713C11.8178 22.7552 11.6247 22.8108 11.4555 22.8366C11.2856 22.8624 11.1087 22.8753 10.9298 22.8753C10.4841 22.8753 10.0559 22.792 9.8383 22.6629C9.55414 22.4943 9.15566 22.0726 8.82305 21.5875C8.59701 21.2582 8.14686 20.6724 7.6683 20.4541C7.2582 20.2668 6.83001 20.159 6.49224 20.159C6.4212 20.159 6.35661 20.1641 6.29978 20.1732C6.06341 20.2106 5.86836 20.3359 5.76503 20.518C5.68236 20.6627 5.6688 20.83 5.72693 20.9753C5.84253 21.2646 6.27072 21.5242 6.44961 21.6224C6.66597 21.7413 7.04313 22.1029 7.25949 22.4517C7.42159 22.7126 7.49845 22.9018 7.59597 23.1408C7.65086 23.2758 7.71093 23.423 7.7923 23.6006C8.00607 24.065 8.66611 24.5513 9.02261 24.765C9.50957 25.057 10.4137 25.1383 10.9097 25.1603L10.9814 25.1616C11.1745 25.1616 11.4981 25.1325 11.9469 25.0744V27.1262C11.9469 27.6293 11.3069 27.6493 11.15 27.6493C11.13 27.6493 11.4748 27.7682 11.4748 27.7682C12.7426 28.1841 14.0931 28.4166 15.4997 28.4166C16.9063 28.4166 18.2567 28.1841 19.5239 27.7688C19.5239 27.7688 19.8991 27.6371 19.8791 27.6396Z" fill="black" fill-opacity="0.54"/>
<path d="M23.7298 15.0697C23.7298 13.5778 23.2247 12.3404 22.3625 11.3704C22.4562 11.1605 22.5537 10.8789 22.6022 10.525C22.7132 9.71768 22.5821 9.23331 22.471 8.75927C22.36 8.28522 22.2289 7.95197 22.2289 7.95197C22.2289 7.95197 21.6334 7.89127 21.129 8.06306C20.6246 8.23485 20.1906 8.36595 19.5648 8.73924C19.2722 8.91362 18.9777 9.10479 18.7446 9.25979C17.7481 8.98337 16.6521 8.84129 15.4993 8.84129C14.3361 8.84129 13.2305 8.98402 12.2268 9.26237C11.993 9.10672 11.6966 8.91427 11.4021 8.7386C10.7763 8.36531 10.3423 8.2342 9.8379 8.06241C9.33351 7.89062 8.73805 7.95133 8.73805 7.95133C8.73805 7.95133 8.60694 8.28458 8.49586 8.75862C8.38478 9.23266 8.25367 9.71704 8.36476 10.5243C8.41448 10.8873 8.51523 11.174 8.61146 11.3852C7.76542 12.3495 7.26942 13.5791 7.26942 15.0691C7.26942 18.9331 9.35676 20.6969 13.1601 21.1625C12.7164 21.6314 12.4187 22.232 12.3185 22.9004C12.0686 23.0102 11.7806 23.1136 11.5035 23.1549C10.7905 23.2627 10.0368 23.1549 9.67386 22.9398C9.3109 22.7248 8.88013 22.2404 8.55721 21.7689C8.28467 21.3711 7.89136 20.9093 7.53486 20.7466C7.06405 20.5315 6.60615 20.4508 6.35105 20.4908C6.0953 20.5315 5.97453 20.7195 6.02813 20.8544C6.08173 20.9888 6.33748 21.1909 6.6068 21.3388C6.87611 21.4867 7.29332 21.8904 7.53551 22.2804C7.80546 22.7157 7.85842 22.967 8.08705 23.4642C8.24786 23.8143 8.79811 24.2515 9.19013 24.4866C9.52661 24.6887 10.1989 24.8037 10.9261 24.8366C11.1774 24.8483 11.7709 24.7746 12.2714 24.7036V27.1255C12.2714 27.5382 11.8936 27.852 11.5022 27.7797C12.7584 28.2021 14.0998 28.4165 15.4993 28.4165C16.8982 28.4165 18.2395 28.2021 19.497 27.781C19.1063 27.8527 18.7284 27.5388 18.7284 27.1261V23.3777C18.7284 22.5194 18.3881 21.7437 17.8417 21.1657C21.6173 20.7124 23.7298 18.9906 23.7298 15.0697ZM7.2578 21.136C7.15834 21.085 7.10473 20.9907 7.13832 20.9242C7.1719 20.8577 7.2804 20.8454 7.37986 20.8964C7.47932 20.9474 7.53292 21.0417 7.49934 21.1082C7.46576 21.1748 7.35726 21.187 7.2578 21.136ZM8.04055 21.6236C7.98823 21.6805 7.87586 21.6624 7.78932 21.5836C7.70278 21.5048 7.67501 21.3944 7.72732 21.3375C7.77963 21.2807 7.89201 21.2988 7.97855 21.3776C8.06509 21.4564 8.09286 21.5668 8.04055 21.6236ZM8.52751 22.4309C8.46163 22.4774 8.3499 22.4341 8.27821 22.334C8.20653 22.2339 8.20201 22.1145 8.26788 22.068C8.33376 22.0215 8.44548 22.0647 8.51717 22.1648C8.58821 22.2649 8.59338 22.3844 8.52751 22.4309ZM9.22694 23.0386C9.18238 23.111 9.0558 23.1142 8.94471 23.0464C8.83363 22.9786 8.77938 22.8649 8.82394 22.7926C8.86851 22.7202 8.99509 22.717 9.10617 22.7848C9.21726 22.8526 9.27151 22.9663 9.22694 23.0386ZM9.88828 23.6335C9.75071 23.6167 9.64867 23.5308 9.6603 23.4416C9.67128 23.3525 9.79205 23.2944 9.92896 23.3112C10.0665 23.328 10.1686 23.4139 10.1569 23.503C10.146 23.5915 10.0258 23.6502 9.88828 23.6335ZM10.9545 23.7878C10.8079 23.7794 10.6936 23.6955 10.6994 23.6012C10.7053 23.5069 10.8286 23.4365 10.9752 23.4449C11.1218 23.4533 11.2361 23.5372 11.2303 23.6315C11.2245 23.7265 11.1012 23.7962 10.9545 23.7878ZM11.9608 23.6871C11.8045 23.6871 11.6779 23.6057 11.6779 23.5056C11.6779 23.4055 11.8045 23.3241 11.9608 23.3241C12.117 23.3241 12.2436 23.4055 12.2436 23.5056C12.2436 23.6057 12.1164 23.6871 11.9608 23.6871Z" fill="white"/>
</svg>
