<svg width="100" height="22" viewBox="0 0 100 22" fill="none" xmlns="http://www.w3.org/2000/svg">
<rect width="100" height="22" rx="11" fill="#FF0000" fill-opacity="0.34"/>
<path d="M9.452 15.06C9.276 15.06 9.128 15.012 9.008 14.916C8.896 14.82 8.84 14.676 8.84 14.484V9.612C8.84 9.42 8.896 9.276 9.008 9.18C9.128 9.076 9.276 9.024 9.452 9.024C9.628 9.024 9.772 9.076 9.884 9.18C9.996 9.276 10.052 9.42 10.052 9.612V14.484C10.052 14.676 9.996 14.82 9.884 14.916C9.772 15.012 9.628 15.06 9.452 15.06ZM9.452 7.848C9.22 7.848 9.036 7.784 8.9 7.656C8.764 7.528 8.696 7.36 8.696 7.152C8.696 6.944 8.764 6.78 8.9 6.66C9.036 6.532 9.22 6.468 9.452 6.468C9.676 6.468 9.856 6.532 9.992 6.66C10.136 6.78 10.208 6.944 10.208 7.152C10.208 7.36 10.14 7.528 10.004 7.656C9.868 7.784 9.684 7.848 9.452 7.848ZM14.9023 9C16.3023 9 17.0023 9.788 17.0023 11.364V14.484C17.0023 14.668 16.9463 14.812 16.8343 14.916C16.7303 15.012 16.5823 15.06 16.3903 15.06C16.2063 15.06 16.0583 15.008 15.9463 14.904C15.8423 14.8 15.7903 14.66 15.7903 14.484V11.424C15.7903 10.928 15.6903 10.564 15.4903 10.332C15.2983 10.1 14.9943 9.984 14.5783 9.984C14.0903 9.984 13.6983 10.136 13.4023 10.44C13.1063 10.744 12.9583 11.152 12.9583 11.664V14.484C12.9583 14.66 12.9023 14.8 12.7903 14.904C12.6863 15.008 12.5423 15.06 12.3583 15.06C12.1743 15.06 12.0263 15.008 11.9143 14.904C11.8023 14.8 11.7463 14.66 11.7463 14.484V9.6C11.7463 9.432 11.8023 9.296 11.9143 9.192C12.0343 9.08 12.1823 9.024 12.3583 9.024C12.5343 9.024 12.6743 9.076 12.7783 9.18C12.8823 9.284 12.9343 9.42 12.9343 9.588V10.08C13.1263 9.728 13.3943 9.46 13.7383 9.276C14.0823 9.092 14.4703 9 14.9023 9ZM26.6124 6.48C26.7964 6.48 26.9444 6.532 27.0564 6.636C27.1684 6.74 27.2244 6.88 27.2244 7.056V14.472C27.2244 14.656 27.1684 14.8 27.0564 14.904C26.9524 15.008 26.8084 15.06 26.6244 15.06C26.4404 15.06 26.2924 15.008 26.1804 14.904C26.0764 14.8 26.0244 14.656 26.0244 14.472V13.992C25.8484 14.344 25.5924 14.616 25.2564 14.808C24.9204 14.992 24.5324 15.084 24.0924 15.084C23.5884 15.084 23.1364 14.956 22.7364 14.7C22.3444 14.444 22.0364 14.084 21.8124 13.62C21.5964 13.156 21.4884 12.624 21.4884 12.024C21.4884 11.416 21.5964 10.884 21.8124 10.428C22.0364 9.972 22.3444 9.62 22.7364 9.372C23.1284 9.124 23.5804 9 24.0924 9C24.5324 9 24.9164 9.096 25.2444 9.288C25.5804 9.472 25.8364 9.736 26.0124 10.08V7.032C26.0124 6.864 26.0644 6.732 26.1684 6.636C26.2804 6.532 26.4284 6.48 26.6124 6.48ZM24.3804 14.124C24.9004 14.124 25.3044 13.944 25.5924 13.584C25.8804 13.224 26.0244 12.712 26.0244 12.048C26.0244 11.384 25.8804 10.872 25.5924 10.512C25.3124 10.152 24.9084 9.972 24.3804 9.972C23.8524 9.972 23.4404 10.152 23.1444 10.512C22.8564 10.864 22.7124 11.368 22.7124 12.024C22.7124 12.68 22.8604 13.196 23.1564 13.572C23.4524 13.94 23.8604 14.124 24.3804 14.124ZM33.4982 13.524C33.6102 13.524 33.7022 13.568 33.7742 13.656C33.8462 13.744 33.8822 13.856 33.8822 13.992C33.8822 14.224 33.7382 14.42 33.4502 14.58C33.1702 14.74 32.8622 14.864 32.5262 14.952C32.1982 15.04 31.8822 15.084 31.5782 15.084C30.6502 15.084 29.9182 14.816 29.3822 14.28C28.8462 13.736 28.5782 12.996 28.5782 12.06C28.5782 11.46 28.6942 10.928 28.9262 10.464C29.1662 10 29.4982 9.64 29.9222 9.384C30.3542 9.128 30.8422 9 31.3862 9C32.1702 9 32.7902 9.252 33.2462 9.756C33.7022 10.26 33.9302 10.94 33.9302 11.796C33.9302 12.116 33.7862 12.276 33.4982 12.276H29.7902C29.8702 13.516 30.4662 14.136 31.5782 14.136C31.8742 14.136 32.1302 14.096 32.3462 14.016C32.5622 13.936 32.7902 13.832 33.0302 13.704C33.0542 13.688 33.1182 13.656 33.2222 13.608C33.3342 13.552 33.4262 13.524 33.4982 13.524ZM31.4102 9.888C30.9462 9.888 30.5742 10.036 30.2942 10.332C30.0142 10.628 29.8462 11.044 29.7902 11.58H32.8862C32.8622 11.036 32.7222 10.62 32.4662 10.332C32.2182 10.036 31.8662 9.888 31.4102 9.888ZM39.3478 9.384C39.3958 9.264 39.4638 9.176 39.5518 9.12C39.6478 9.064 39.7478 9.036 39.8518 9.036C40.0038 9.036 40.1358 9.088 40.2478 9.192C40.3678 9.296 40.4278 9.42 40.4278 9.564C40.4278 9.644 40.4118 9.72 40.3798 9.792L38.0878 14.652C38.0318 14.78 37.9438 14.88 37.8238 14.952C37.7118 15.016 37.5918 15.048 37.4638 15.048C37.3358 15.048 37.2118 15.016 37.0918 14.952C36.9798 14.88 36.8958 14.78 36.8398 14.652L34.5478 9.792C34.5158 9.728 34.4998 9.652 34.4998 9.564C34.4998 9.42 34.5638 9.296 34.6918 9.192C34.8198 9.088 34.9638 9.036 35.1238 9.036C35.3558 9.036 35.5278 9.148 35.6398 9.372L37.4998 13.5L39.3478 9.384ZM45.9201 13.524C46.0321 13.524 46.1241 13.568 46.1961 13.656C46.2681 13.744 46.3041 13.856 46.3041 13.992C46.3041 14.224 46.1601 14.42 45.8721 14.58C45.5921 14.74 45.2841 14.864 44.9481 14.952C44.6201 15.04 44.3041 15.084 44.0001 15.084C43.0721 15.084 42.3401 14.816 41.8041 14.28C41.2681 13.736 41.0001 12.996 41.0001 12.06C41.0001 11.46 41.1161 10.928 41.3481 10.464C41.5881 10 41.9201 9.64 42.3441 9.384C42.7761 9.128 43.2641 9 43.8081 9C44.5921 9 45.2121 9.252 45.6681 9.756C46.1241 10.26 46.3521 10.94 46.3521 11.796C46.3521 12.116 46.2081 12.276 45.9201 12.276H42.2121C42.2921 13.516 42.8881 14.136 44.0001 14.136C44.2961 14.136 44.5521 14.096 44.7681 14.016C44.9841 13.936 45.2121 13.832 45.4521 13.704C45.4761 13.688 45.5401 13.656 45.6441 13.608C45.7561 13.552 45.8481 13.524 45.9201 13.524ZM43.8321 9.888C43.3681 9.888 42.9961 10.036 42.7161 10.332C42.4361 10.628 42.2681 11.044 42.2121 11.58H45.3081C45.2841 11.036 45.1441 10.62 44.8881 10.332C44.6401 10.036 44.2881 9.888 43.8321 9.888ZM48.2997 15.06C48.1237 15.06 47.9757 15.012 47.8557 14.916C47.7437 14.82 47.6877 14.676 47.6877 14.484V7.068C47.6877 6.876 47.7437 6.732 47.8557 6.636C47.9757 6.532 48.1237 6.48 48.2997 6.48C48.4757 6.48 48.6197 6.532 48.7317 6.636C48.8437 6.732 48.8997 6.876 48.8997 7.068V14.484C48.8997 14.676 48.8437 14.82 48.7317 14.916C48.6197 15.012 48.4757 15.06 48.2997 15.06ZM53.1379 15.084C52.5619 15.084 52.0539 14.96 51.6139 14.712C51.1819 14.464 50.8459 14.112 50.6059 13.656C50.3739 13.192 50.2579 12.656 50.2579 12.048C50.2579 11.432 50.3739 10.896 50.6059 10.44C50.8459 9.976 51.1819 9.62 51.6139 9.372C52.0539 9.124 52.5619 9 53.1379 9C53.7139 9 54.2179 9.124 54.6499 9.372C55.0899 9.62 55.4259 9.976 55.6579 10.44C55.8979 10.896 56.0179 11.432 56.0179 12.048C56.0179 12.656 55.8979 13.192 55.6579 13.656C55.4259 14.112 55.0899 14.464 54.6499 14.712C54.2179 14.96 53.7139 15.084 53.1379 15.084ZM53.1379 14.124C53.6739 14.124 54.0819 13.948 54.3619 13.596C54.6499 13.244 54.7939 12.728 54.7939 12.048C54.7939 11.376 54.6499 10.864 54.3619 10.512C54.0739 10.152 53.6659 9.972 53.1379 9.972C52.6099 9.972 52.2019 10.152 51.9139 10.512C51.6259 10.864 51.4819 11.376 51.4819 12.048C51.4819 12.728 51.6219 13.244 51.9019 13.596C52.1899 13.948 52.6019 14.124 53.1379 14.124ZM60.5113 9C61.0153 9 61.4633 9.128 61.8553 9.384C62.2553 9.64 62.5633 10 62.7793 10.464C63.0033 10.928 63.1153 11.464 63.1153 12.072C63.1153 12.672 63.0073 13.2 62.7913 13.656C62.5753 14.112 62.2673 14.464 61.8673 14.712C61.4753 14.96 61.0233 15.084 60.5113 15.084C60.0713 15.084 59.6833 14.992 59.3473 14.808C59.0113 14.616 58.7553 14.344 58.5793 13.992V16.668C58.5793 16.836 58.5233 16.968 58.4113 17.064C58.3073 17.168 58.1673 17.22 57.9913 17.22C57.8073 17.22 57.6553 17.168 57.5353 17.064C57.4233 16.96 57.3673 16.82 57.3673 16.644V9.612C57.3673 9.436 57.4233 9.296 57.5353 9.192C57.6473 9.08 57.7953 9.024 57.9793 9.024C58.1553 9.024 58.2993 9.08 58.4113 9.192C58.5233 9.296 58.5793 9.436 58.5793 9.612V10.104C58.7553 9.752 59.0113 9.48 59.3473 9.288C59.6833 9.096 60.0713 9 60.5113 9ZM60.2233 14.124C60.7513 14.124 61.1593 13.948 61.4473 13.596C61.7353 13.236 61.8793 12.728 61.8793 12.072C61.8793 11.408 61.7313 10.892 61.4353 10.524C61.1473 10.156 60.7433 9.972 60.2233 9.972C59.6953 9.972 59.2873 10.152 58.9993 10.512C58.7193 10.872 58.5793 11.384 58.5793 12.048C58.5793 12.712 58.7193 13.224 58.9993 13.584C59.2873 13.944 59.6953 14.124 60.2233 14.124ZM71.1772 9C72.4892 9 73.1452 9.788 73.1452 11.364V14.484C73.1452 14.668 73.0892 14.812 72.9772 14.916C72.8652 15.012 72.7172 15.06 72.5332 15.06C72.3572 15.06 72.2132 15.012 72.1012 14.916C71.9892 14.812 71.9332 14.668 71.9332 14.484V11.376C71.9332 10.888 71.8452 10.536 71.6692 10.32C71.4932 10.096 71.2172 9.984 70.8412 9.984C70.4012 9.984 70.0532 10.136 69.7972 10.44C69.5412 10.736 69.4132 11.144 69.4132 11.664V14.484C69.4132 14.668 69.3572 14.812 69.2452 14.916C69.1332 15.012 68.9852 15.06 68.8012 15.06C68.6252 15.06 68.4812 15.012 68.3692 14.916C68.2572 14.812 68.2012 14.668 68.2012 14.484V11.376C68.2012 10.888 68.1132 10.536 67.9372 10.32C67.7612 10.096 67.4852 9.984 67.1092 9.984C66.6692 9.984 66.3172 10.136 66.0532 10.44C65.7972 10.736 65.6692 11.144 65.6692 11.664V14.484C65.6692 14.668 65.6132 14.812 65.5012 14.916C65.3892 15.012 65.2452 15.06 65.0692 15.06C64.8932 15.06 64.7452 15.012 64.6252 14.916C64.5132 14.812 64.4572 14.668 64.4572 14.484V9.6C64.4572 9.424 64.5172 9.284 64.6372 9.18C64.7572 9.076 64.9012 9.024 65.0692 9.024C65.2372 9.024 65.3732 9.076 65.4772 9.18C65.5892 9.276 65.6452 9.412 65.6452 9.588V10.032C65.8212 9.696 66.0652 9.44 66.3772 9.264C66.6892 9.088 67.0492 9 67.4572 9C67.9052 9 68.2732 9.092 68.5612 9.276C68.8572 9.46 69.0772 9.744 69.2212 10.128C69.3972 9.784 69.6572 9.512 70.0012 9.312C70.3452 9.104 70.7372 9 71.1772 9ZM79.3888 13.524C79.5008 13.524 79.5928 13.568 79.6648 13.656C79.7368 13.744 79.7728 13.856 79.7728 13.992C79.7728 14.224 79.6288 14.42 79.3408 14.58C79.0608 14.74 78.7528 14.864 78.4168 14.952C78.0888 15.04 77.7728 15.084 77.4688 15.084C76.5408 15.084 75.8088 14.816 75.2728 14.28C74.7368 13.736 74.4688 12.996 74.4688 12.06C74.4688 11.46 74.5848 10.928 74.8168 10.464C75.0568 10 75.3888 9.64 75.8128 9.384C76.2448 9.128 76.7328 9 77.2768 9C78.0608 9 78.6808 9.252 79.1368 9.756C79.5928 10.26 79.8208 10.94 79.8208 11.796C79.8208 12.116 79.6768 12.276 79.3888 12.276H75.6808C75.7608 13.516 76.3568 14.136 77.4688 14.136C77.7648 14.136 78.0208 14.096 78.2368 14.016C78.4528 13.936 78.6808 13.832 78.9208 13.704C78.9448 13.688 79.0088 13.656 79.1128 13.608C79.2248 13.552 79.3168 13.524 79.3888 13.524ZM77.3008 9.888C76.8368 9.888 76.4648 10.036 76.1848 10.332C75.9048 10.628 75.7368 11.044 75.6808 11.58H78.7768C78.7528 11.036 78.6128 10.62 78.3568 10.332C78.1088 10.036 77.7568 9.888 77.3008 9.888ZM84.3124 9C85.7124 9 86.4124 9.788 86.4124 11.364V14.484C86.4124 14.668 86.3564 14.812 86.2444 14.916C86.1404 15.012 85.9924 15.06 85.8004 15.06C85.6164 15.06 85.4684 15.008 85.3564 14.904C85.2524 14.8 85.2004 14.66 85.2004 14.484V11.424C85.2004 10.928 85.1004 10.564 84.9004 10.332C84.7084 10.1 84.4044 9.984 83.9884 9.984C83.5004 9.984 83.1084 10.136 82.8124 10.44C82.5164 10.744 82.3684 11.152 82.3684 11.664V14.484C82.3684 14.66 82.3124 14.8 82.2004 14.904C82.0964 15.008 81.9524 15.06 81.7684 15.06C81.5844 15.06 81.4364 15.008 81.3244 14.904C81.2124 14.8 81.1564 14.66 81.1564 14.484V9.6C81.1564 9.432 81.2124 9.296 81.3244 9.192C81.4444 9.08 81.5924 9.024 81.7684 9.024C81.9444 9.024 82.0844 9.076 82.1884 9.18C82.2924 9.284 82.3444 9.42 82.3444 9.588V10.08C82.5364 9.728 82.8044 9.46 83.1484 9.276C83.4924 9.092 83.8804 9 84.3124 9ZM90.9385 14.136C91.1145 14.152 91.2385 14.2 91.3105 14.28C91.3905 14.352 91.4305 14.456 91.4305 14.592C91.4305 14.752 91.3665 14.876 91.2385 14.964C91.1185 15.044 90.9385 15.076 90.6985 15.06L90.3745 15.036C89.7265 14.988 89.2425 14.792 88.9225 14.448C88.6025 14.096 88.4425 13.58 88.4425 12.9V10.08H87.7225C87.3705 10.08 87.1945 9.924 87.1945 9.612C87.1945 9.468 87.2385 9.356 87.3265 9.276C87.4225 9.188 87.5545 9.144 87.7225 9.144H88.4425V7.908C88.4425 7.724 88.4945 7.58 88.5985 7.476C88.7105 7.372 88.8585 7.32 89.0425 7.32C89.2265 7.32 89.3745 7.372 89.4865 7.476C89.5985 7.58 89.6545 7.724 89.6545 7.908V9.144H90.8425C91.0105 9.144 91.1385 9.188 91.2265 9.276C91.3225 9.356 91.3705 9.468 91.3705 9.612C91.3705 9.764 91.3225 9.88 91.2265 9.96C91.1385 10.04 91.0105 10.08 90.8425 10.08H89.6545V12.984C89.6545 13.36 89.7305 13.636 89.8825 13.812C90.0425 13.988 90.2825 14.088 90.6025 14.112L90.9385 14.136Z" fill="white"/>
</svg>
