<svg width="1156" height="517" viewBox="0 0 1156 517" fill="none" xmlns="http://www.w3.org/2000/svg">
<path d="M1238 -108.5C1238 -45.2634 1186.29 5.99999 1122.5 5.99999C1058.71 5.99999 1007 -45.2634 1007 -108.5C1007 -171.737 1058.71 -223 1122.5 -223C1186.29 -223 1238 -171.737 1238 -108.5Z" fill="#FFF0F0"/>
<path d="M1220 -95C1220 -24.3076 1162.69 33 1092 33C1021.31 33 964 -24.3076 964 -95C964 -165.692 1021.31 -223 1092 -223C1162.69 -223 1220 -165.692 1220 -95Z" fill="#FF0000" fill-opacity="0.02"/>
<path d="M561 278.5C561 741.038 180.666 1116 -288.5 1116C-757.666 1116 -1138 741.038 -1138 278.5C-1138 -184.038 -757.666 -559 -288.5 -559C180.666 -559 561 -184.038 561 278.5Z" fill="#FFFAFA"/>
<path d="M197 556C197 646.575 123.575 720 33 720C-57.5747 720 -131 646.575 -131 556C-131 465.425 -57.5747 392 33 392C123.575 392 197 465.425 197 556Z" fill="#FF0000" fill-opacity="0.02"/>
<path d="M174 556C174 621.17 120.946 674 55.5 674C-9.94575 674 -63 621.17 -63 556C-63 490.83 -9.94575 438 55.5 438C120.946 438 174 490.83 174 556Z" fill="#FF0000" fill-opacity="0.02"/>
</svg>
