<svg width="20" height="20" viewBox="0 0 20 20" fill="none" xmlns="http://www.w3.org/2000/svg">
<path d="M12.2579 18.4515L0.978207 6.20491C0.349182 5.52197 0 4.62744 0 3.69896V2.56118C0 1.14668 1.14668 0 2.56118 0C3.27697 0 3.9601 0.299542 4.44504 0.826041L5.38541 1.84702C6.2762 2.81416 6.5354 4.20555 6.05263 5.42857C5.56986 6.6516 5.82944 8.04339 6.72022 9.01053L11.1535 13.8238C12.0616 14.8097 13.4433 15.2083 14.7368 14.8571L15.0546 14.7709C16.1529 14.4728 17.3259 14.811 18.0969 15.6481L18.5737 16.1658C19.3797 17.0408 19.3797 18.3878 18.5737 19.2628C18.141 19.7327 17.5313 20 16.8925 20H15.7895C14.4476 20 13.167 19.4385 12.2579 18.4515Z" fill="#58C472" fill-opacity="0.75"/>
</svg>
